<?xml version="1.0" encoding="UTF-8"?>
<svg width="120px" height="35px" viewBox="0 0 120 35" version="1.1" xmlns="http://www.w3.org/2000/svg" xmlns:xlink="http://www.w3.org/1999/xlink">
    <!-- Generator: Sketch 55.1 (78136) - https://sketchapp.com -->
    <title>logo/red</title>
    <desc>Created with Sketch.</desc>
    <defs>
        <polygon id="path-1" points="0.0724761905 0.348476307 22.6342857 0.348476307 22.6342857 32.801683 0.0724761905 32.801683"></polygon>
    </defs>
    <g id="Symbols" stroke="none" stroke-width="1" fill="none" fill-rule="evenodd">
        <g id="header" transform="translate(-30.000000, -1.000000)">
            <g id="Header" transform="translate(30.000000, -1.000000)">
                <g id="logo/red" transform="translate(0.000000, 2.000000)">
                    <g transform="translate(0.000000, -0.000000)">
                        <path d="M87.6015714,13.7045895 C87.1134762,14.3970323 86.4520476,14.9057945 85.6025238,15.2318158 C84.7549048,15.5564277 83.0777619,15.7189685 80.5582381,15.7189685 L78.3101429,15.7189685 L78.2963333,15.7189685 L78.2710952,6.87881332 L78.3101429,6.87881332 L80.143,6.87881332 C82.4477619,6.87881332 83.9810952,6.94458129 84.7382381,7.08833129 C85.7687143,7.27060253 86.6301429,7.73285743 87.3058571,8.47227737 C87.9796667,9.20793913 88.3196667,10.1427839 88.3196667,11.2824489 C88.3196667,12.1947447 88.0734762,13.0055699 87.6015714,13.7045895 M93.0582381,5.11998979 C91.8349048,3.55377247 90.320619,2.53671773 88.5077619,2.0716442 C87.3334762,1.75689747 84.800619,1.60093342 80.9258571,1.60093342 L78.3101429,1.60093342 L77.0649048,1.60093342 L72.3320476,1.60093342 L72.3320476,34.0541401 L72.820619,34.0541401 C74.0068095,34.0024653 77.045381,33.5209498 78.2510952,30.1465829 C78.2739524,29.9807537 78.3334762,29.4555494 78.3334762,29.1356352 L78.3101429,24.8057537 L78.3101429,24.7832047 L78.290619,21.01423 L78.3101429,21.01423 L81.2220476,21.01423 C84.1168095,21.01423 86.3201429,20.866252 87.8420476,20.5707659 C88.963,20.3311826 90.0644286,19.8341646 91.1515714,19.0914563 C92.2339524,18.3501573 93.1287143,17.3255862 93.8382381,16.0200919 C94.5377619,14.7131883 94.8910952,13.1046916 94.8910952,11.1889645 C94.8910952,8.70951185 94.2839524,6.69090482 93.0582381,5.11998979" id="Fill-1" fill="#D82410"></path>
                        <g id="Group-5" transform="translate(97.142857, 1.252457)">
                            <mask id="mask-2" fill="white">
                                <use xlink:href="#path-1"></use>
                            </mask>
                            <g id="Clip-4"></g>
                            <path d="M15.342,12.4521324 C14.8567619,13.1445752 14.1958095,13.6533374 13.3458095,13.9793587 C12.4953333,14.3039706 10.8210476,14.4665114 8.30152381,14.4665114 L6.05342857,14.4665114 L6.0367619,14.4665114 L6.01152381,5.62635621 L6.05342857,5.62635621 L7.8867619,5.62635621 C10.1915238,5.62635621 11.7215238,5.69212418 12.4815238,5.83587418 C13.512,6.01814542 14.3734286,6.48040033 15.0462857,7.21982026 C15.7239048,7.95548203 16.059619,8.8903268 16.059619,10.0299918 C16.059619,10.9422876 15.8167619,11.7531127 15.342,12.4521324 M20.8015238,3.86753268 C19.5758095,2.30131536 18.062,1.28426062 16.2491429,0.819187092 C15.0772381,0.504440359 12.5439048,0.348476307 8.66628571,0.348476307 L6.05342857,0.348476307 L4.80819048,0.348476307 L0.0724761905,0.348476307 L0.0724761905,32.801683 L0.563904762,32.801683 C1.75009524,32.7500082 4.78580952,32.2684926 5.99438095,28.8941258 C6.01390476,28.7282966 6.0767619,28.2030923 6.0767619,27.8831781 L6.05342857,23.5532966 L6.05342857,23.5307475 L6.03104762,19.7617729 L6.05342857,19.7617729 L8.96247619,19.7617729 C11.8605714,19.7617729 14.0629524,19.6137949 15.5853333,19.3183088 C16.7072381,19.0787255 17.8053333,18.5817075 18.8953333,17.8389992 C19.9772381,17.0977002 20.872,16.0731291 21.5805714,14.7676348 C22.282,13.4607312 22.634381,11.8522345 22.634381,9.93650735 C22.634381,7.45705474 22.024381,5.43844771 20.8015238,3.86753268" id="Fill-3" fill="#D82410" mask="url(#mask-2)"></path>
                        </g>
                        <path d="M11.8987143,17.734569 C8.50109524,17.734569 5.74728571,15.0174122 5.74728571,11.6651246 C5.74728571,8.31377655 8.50109524,5.59614992 11.8987143,5.59614992 C15.2982381,5.59614992 18.0520476,8.31377655 18.0520476,11.6651246 C18.0520476,15.0174122 15.2982381,17.734569 11.8987143,17.734569 M11.8987143,0.000234885621 C5.32966667,0.000234885621 0.000142857143,5.255096 0.000142857143,11.7374694 C0.000142857143,18.0455576 5.04395238,23.1900225 11.3701429,23.4643689 L8.32585714,28.0573223 C6.70490476,32.4172692 11.050619,33.871681 11.050619,33.871681 C11.050619,33.871681 19.6434762,21.4579759 20.6910952,19.8668607 C21.7382381,18.2752757 23.7987143,14.8858762 23.7987143,11.7374694 C23.7987143,5.255096 18.4701429,0.000234885621 11.8987143,0.000234885621" id="Fill-6" fill="#D82410"></path>
                        <path d="M35.0004286,34.136444 C29.5199524,34.136444 29.4304286,29.7633435 29.4304286,28.7580331 L29.4304286,6.29122345 L25.7947143,6.29122345 C25.5156667,6.29122345 25.4175714,5.98634191 25.4175714,5.87500613 L25.4175714,1.42815155 L35.0004286,1.42815155 L35.0004286,34.136444 Z" id="Fill-8" fill="#D82410"></path>
                        <path d="M49.8490952,19.9845854 L53.7552857,9.26393587 L58.2019524,21.143511 C56.7176667,21.6518035 52.7952857,22.6021507 49.8490952,19.9845854 L49.8490952,19.9845854 Z M58.0581429,3.82304534 C57.7929048,3.25086397 57.2929048,2.01583538 54.7538571,2.01583538 L52.9138571,2.01583538 C50.3748095,2.01583538 49.8752857,3.25086397 49.6095714,3.82304534 L45.831,13.4721467 L39.6195714,13.0502921 C39.6195714,13.0502921 39.6595714,18.1501287 42.4843333,22.0586254 L37.843381,33.996922 L44.7429048,33.996922 L47.7024286,25.8435723 C50.5519524,26.7549285 54.3981429,26.704663 59.6181429,24.8796017 L63.0462381,33.996922 L70.1600476,33.996922 L58.0581429,3.82304534 Z" id="Fill-10" fill="#D82410"></path>
                    </g>
                </g>
            </g>
        </g>
    </g>
</svg>